<svg fill="none" height="19" viewBox="0 0 19 19" width="19" xmlns="http://www.w3.org/2000/svg"><path d="m15.2513 6.2c0-1.37913-.5619-2.70177-1.5621-3.67696-1.0002-.97518-2.3567-1.52304-3.77123-1.52304-1.41449 0-2.77104.54786-3.77124 1.52304-1.00019.97519-1.56209 2.29783-1.56209 3.67696 0 6.0667-2.66667 7.8-2.66667 7.8h16.00003s-2.6667-1.7333-2.6667-7.8z" stroke="#409eff" stroke-linecap="round" stroke-linejoin="round" stroke-width="2"/><path d="m12.918 17c-.3049.6083-.7425 1.1132-1.269 1.4642-.5265.3511-1.1234.5358-1.73103.5358-.6076 0-1.20453-.1847-1.73103-.5358-.5265-.351-.9641-.8559-1.26897-1.4642" fill="#409eff"/></svg>